<?xml version="1.0" standalone="no"?>
<!DOCTYPE svg PUBLIC "-//W3C//DTD SVG 20010904//EN"
 "http://www.w3.org/TR/2001/REC-SVG-20010904/DTD/svg10.dtd">
<svg version="1.0" xmlns="http://www.w3.org/2000/svg"
 width="1080.000000pt" height="1080.000000pt" viewBox="0 0 1080.000000 1080.000000"
 preserveAspectRatio="xMidYMid meet">
<metadata>
Created by potrace 1.14, written by Peter Selinger 2001-2017
</metadata>
<g transform="translate(0.000000,1080.000000) scale(0.100000,-0.100000)"
fill="#000000" stroke="none">
<path d="M2065 10120 c-3 -5 -1 -10 4 -10 6 0 11 5 11 10 0 6 -2 10 -4 10 -3
0 -8 -4 -11 -10z"/>
<path d="M5944 9586 c-8 -20 -36 -29 -45 -15 -5 9 -11 8 -23 -3 -8 -9 -12 -18
-9 -22 3 -3 1 -12 -5 -19 -7 -8 -10 -16 -8 -18 2 -2 7 -29 10 -60 9 -79 -3
-86 -80 -46 -131 69 -150 80 -174 103 -57 53 -119 75 -223 81 -86 5 -100 3
-118 -13 -42 -38 -43 -61 -4 -136 44 -83 45 -135 5 -156 -33 -17 -202 -11
-226 9 -23 19 -161 20 -173 1 -4 -7 -39 -18 -77 -24 -38 -6 -81 -19 -96 -30
-14 -10 -33 -18 -42 -18 -9 0 -16 -7 -16 -15 0 -8 -6 -15 -14 -15 -8 0 -21 -9
-28 -19 -19 -26 -88 -53 -117 -46 -14 4 -57 3 -97 0 -61 -6 -73 -10 -82 -30
-9 -19 -20 -23 -77 -28 -56 -4 -71 -9 -89 -30 -14 -17 -34 -27 -61 -30 -44 -4
-125 -24 -167 -41 l-27 -10 32 -11 c23 -7 31 -16 29 -29 -2 -11 4 -20 17 -23
12 -3 18 -10 14 -16 -4 -6 17 -8 63 -5 50 4 73 1 82 -8 13 -14 102 -9 134 7 9
5 26 9 38 9 52 0 167 35 200 60 20 15 55 30 81 34 25 4 52 15 61 26 9 10 34
22 55 25 51 9 91 25 111 44 10 11 39 17 89 19 40 3 73 8 73 13 0 5 17 9 38 9
20 0 55 5 77 11 55 14 124 11 163 -7 28 -13 42 -14 81 -4 39 9 52 8 76 -4 17
-9 43 -16 59 -16 25 0 27 -3 22 -25 -5 -19 -2 -25 9 -25 13 0 15 -12 13 -63
-2 -52 1 -66 18 -85 16 -17 23 -40 27 -95 2 -39 10 -73 16 -75 6 -2 11 -14 11
-26 0 -24 28 -56 48 -56 7 0 12 -9 12 -20 0 -11 -7 -20 -15 -20 -8 0 -15 -9
-15 -20 0 -11 -7 -20 -15 -20 -8 0 -15 -4 -15 -10 0 -10 40 -50 51 -50 4 0 10
-32 14 -71 5 -52 12 -75 28 -90 l21 -19 -22 0 c-26 0 -26 1 -5 -41 9 -19 16
-49 14 -66 -3 -41 7 -73 23 -73 12 0 32 -85 43 -177 4 -34 9 -43 24 -43 14 0
18 6 16 23 -3 31 34 29 50 -3 10 -20 13 -21 13 -6 0 14 6 17 25 14 14 -3 30 1
36 8 6 8 20 14 30 14 11 0 19 5 19 11 0 6 -7 9 -15 5 -8 -3 -15 -1 -15 4 0 6
6 10 14 10 23 0 30 39 12 59 -9 10 -16 35 -16 59 0 23 -4 42 -10 42 -5 0 -10
4 -10 10 0 5 6 7 14 4 20 -8 29 27 31 116 2 98 12 152 30 166 17 13 20 44 5
44 -5 0 -10 -6 -10 -12 -1 -20 -24 24 -26 50 -2 17 2 22 21 22 24 0 24 0 7 29
-9 16 -18 28 -20 26 -7 -6 -42 35 -42 49 0 8 -4 18 -10 21 -13 8 -13 212 0
220 6 4 8 10 5 15 -3 5 5 10 17 12 24 3 38 28 15 28 -7 0 -22 9 -32 20 -16 18
-16 20 -1 35 9 9 16 23 16 30 0 8 9 17 20 20 11 4 18 11 15 16 -13 20 56 30
224 32 157 3 244 0 506 -17 61 -3 74 -1 97 18 36 28 29 66 -13 66 -15 0 -31 4
-34 10 -9 14 -112 60 -135 60 -10 0 -31 11 -47 24 -15 13 -42 30 -59 39 -17 9
-58 41 -91 71 -79 74 -142 116 -173 116 -15 0 -30 4 -36 10 -5 5 -30 11 -56
13 -26 1 -50 6 -54 10 -4 4 -16 7 -26 7 -10 0 -31 14 -46 30 -31 32 -69 40
-78 16z m-304 -1046 c0 -13 -7 -20 -20 -20 -13 0 -20 7 -20 20 0 13 7 20 20
20 13 0 20 -7 20 -20z m300 -70 c0 -5 -4 -10 -10 -10 -5 0 -10 5 -10 10 0 6 5
10 10 10 6 0 10 -4 10 -10z"/>
<path d="M2340 9186 c0 -8 -4 -16 -10 -18 -13 -4 -17 -46 -5 -50 6 -2 11 9 13
25 4 30 19 36 29 11 7 -18 -22 -84 -36 -84 -5 0 -15 -26 -21 -57 -6 -32 -17
-73 -26 -91 -8 -18 -12 -38 -9 -43 4 -5 -2 -20 -13 -34 -21 -26 -37 -119 -27
-147 16 -41 78 -18 160 58 28 25 69 59 93 76 23 16 42 33 42 38 0 6 6 10 14
10 8 0 16 3 18 8 2 4 23 23 48 42 88 68 93 74 85 110 -5 22 -16 35 -36 44 -16
7 -26 15 -22 19 10 11 -29 36 -55 37 -12 0 -30 4 -40 9 -21 11 -62 27 -85 35
-9 3 -29 1 -44 -5 -22 -8 -30 -7 -39 5 -14 20 -34 21 -34 2z"/>
<path d="M7685 9183 c-16 -3 -34 -8 -40 -13 -11 -8 -111 -25 -135 -22 -8 1
-35 -18 -59 -43 -40 -41 -49 -45 -92 -45 -39 0 -49 -4 -54 -20 -8 -26 4 -107
19 -119 6 -5 52 -19 101 -30 50 -12 117 -34 150 -50 113 -55 154 -71 184 -71
32 0 101 -35 101 -52 0 -5 21 -18 46 -29 25 -12 63 -38 85 -60 27 -27 51 -41
78 -45 27 -4 53 -20 90 -55 29 -27 58 -49 64 -49 7 0 19 -9 27 -21 20 -28 77
-62 90 -54 14 9 81 -36 142 -93 26 -25 51 -41 57 -37 18 11 7 109 -18 150 -11
20 -21 42 -21 49 0 7 -13 25 -29 40 -16 16 -39 51 -51 78 -12 27 -37 63 -56
80 -19 17 -34 36 -34 44 0 8 -25 43 -55 79 -30 35 -55 68 -55 72 0 4 -51 56
-112 116 -94 90 -158 138 -188 138 -3 0 -8 9 -12 20 -6 17 -10 18 -27 7 -16
-10 -28 -8 -69 15 -48 26 -65 29 -127 20z"/>
<path d="M3840 8912 c0 -10 45 -32 65 -32 8 0 15 9 15 20 0 17 -7 20 -40 20
-22 0 -40 -4 -40 -8z"/>
<path d="M3805 8902 c-5 -4 -17 -20 -25 -37 -25 -47 -97 -65 -240 -58 -19 1
-87 0 -150 -2 -230 -8 -268 -13 -325 -39 -29 -15 -62 -26 -72 -26 -10 0 -45
-13 -78 -30 -33 -16 -71 -30 -85 -30 -14 0 -44 -10 -67 -22 -44 -24 -58 -50
-47 -92 6 -24 7 -24 157 -28 105 -2 160 -7 176 -17 21 -11 22 -15 10 -25 -8
-6 -14 -17 -15 -23 -3 -38 -5 -41 -24 -36 -13 4 -29 -2 -43 -15 -15 -14 -30
-19 -44 -16 -16 4 -25 -2 -38 -24 -14 -23 -27 -31 -57 -35 -25 -3 -50 -16 -71
-37 -22 -21 -39 -30 -54 -27 -25 5 -47 -16 -56 -51 -4 -19 3 -28 41 -52 26
-16 72 -37 102 -45 30 -9 95 -36 144 -60 l89 -44 41 19 c40 18 94 68 198 183
29 32 67 64 85 72 17 7 40 26 50 42 21 33 114 123 126 123 8 0 29 15 84 60 7
6 24 15 38 20 41 16 27 70 -18 70 -10 0 -31 8 -45 18 -15 10 -35 22 -44 25
-26 9 -22 22 19 56 50 42 165 61 210 34 29 -17 42 0 38 52 -3 26 2 46 12 57
24 26 5 60 -22 40z"/>
<path d="M8597 8803 c-17 -16 12 -163 32 -163 4 0 13 -30 20 -66 10 -56 37
-126 71 -184 55 -93 72 -118 90 -132 11 -10 24 -18 29 -18 4 0 16 -37 26 -81
10 -49 20 -77 25 -69 4 7 13 9 19 6 8 -5 5 -13 -9 -24 -20 -17 -20 -18 -3 -54
10 -21 36 -56 56 -77 34 -36 40 -39 62 -29 21 10 25 18 25 58 0 30 -6 52 -15
60 -8 7 -15 18 -15 25 0 7 -7 19 -16 26 -17 14 -64 105 -64 125 0 6 -6 17 -14
23 -16 13 -19 87 -6 144 11 49 -9 106 -50 140 -15 13 -35 36 -45 51 -10 15
-31 30 -47 33 -22 4 -27 10 -22 22 14 36 14 48 0 83 -26 62 -123 128 -149 101z"/>
<path d="M7242 7740 c-9 -15 -23 -20 -57 -20 -38 0 -45 -3 -45 -19 0 -25 -37
-51 -72 -51 -18 0 -33 -8 -44 -25 -9 -14 -23 -25 -30 -25 -8 0 -14 -9 -14 -21
0 -12 -5 -19 -12 -16 -24 8 -65 -31 -73 -70 -4 -20 -13 -46 -21 -57 -15 -22
-19 -92 -6 -100 5 -3 10 -31 11 -62 1 -35 9 -66 19 -79 15 -21 75 -55 98 -55
5 0 32 -21 59 -46 28 -25 70 -56 96 -69 41 -21 82 -52 130 -97 10 -9 32 -24
48 -33 17 -8 31 -20 31 -25 0 -5 9 -12 20 -15 11 -3 26 -12 33 -18 37 -35 117
-97 124 -97 4 0 28 -25 53 -55 25 -30 56 -57 70 -61 14 -4 30 -10 35 -14 6 -5
37 -17 71 -29 54 -18 66 -19 115 -7 30 7 68 19 84 28 17 9 48 24 70 34 22 11
42 21 45 24 9 9 65 46 80 53 47 22 74 47 98 92 15 28 29 52 32 55 3 3 20 35
39 72 18 37 39 73 47 79 18 14 89 4 141 -20 21 -10 56 -27 78 -37 22 -10 43
-23 47 -28 5 -7 63 -10 161 -9 120 1 162 5 186 17 30 16 31 18 31 90 0 106 -8
134 -41 151 -15 8 -34 12 -42 9 -8 -3 -18 -1 -22 5 -11 18 -140 14 -156 -5
-11 -13 -30 -15 -118 -10 -59 3 -120 5 -138 6 -25 0 -35 6 -47 30 -9 17 -23
43 -31 59 -13 25 -31 44 -106 114 -10 9 -19 26 -19 37 0 10 -20 38 -45 62 -25
24 -45 48 -45 54 0 18 -62 69 -117 97 -98 50 -186 97 -197 106 -6 4 -46 11
-89 15 -68 6 -85 4 -150 -19 -107 -39 -169 -40 -236 -4 -55 29 -105 37 -116
19 -7 -11 -36 -10 -45 2 -3 4 -11 -2 -18 -12z m-144 -132 c-3 -7 -13 -15 -24
-17 -16 -3 -17 -1 -5 13 16 19 34 21 29 4z m566 -254 c11 -27 -3 -51 -32 -57
-30 -6 -37 -2 -46 30 -6 19 -2 24 26 32 46 13 45 13 52 -5z"/>
<path d="M2645 7655 c-22 -8 -42 -15 -44 -15 -2 0 -1 -9 2 -20 6 -24 -21 -50
-33 -31 -5 10 -9 10 -15 1 -10 -17 -56 -33 -88 -31 -15 1 -38 -5 -50 -14 -12
-8 -40 -15 -63 -15 -23 0 -44 -4 -46 -10 -3 -11 -107 -40 -143 -40 -13 0 -26
-4 -29 -9 -3 -4 -31 -11 -61 -14 -31 -3 -62 -10 -68 -15 -20 -16 -85 -22 -91
-9 -2 7 -5 5 -5 -4 -1 -9 -10 -24 -21 -34 -11 -10 -20 -23 -20 -28 0 -6 -8
-20 -19 -31 -29 -33 -41 -101 -31 -181 4 -38 11 -79 15 -90 11 -29 66 -85 84
-85 31 0 176 175 182 220 2 14 11 26 19 26 8 1 22 2 31 3 9 0 39 16 65 34 27
18 79 48 115 65 75 37 172 116 200 161 10 17 30 37 44 43 15 7 24 17 21 25 -3
7 1 13 9 13 8 0 28 13 44 29 17 16 39 32 50 36 25 8 27 21 5 29 -9 3 -16 6
-17 6 -1 -1 -20 -7 -42 -15z"/>
<path d="M4255 7586 c-16 -8 -38 -17 -48 -20 -11 -3 -21 -15 -24 -26 -7 -27
-27 -31 -156 -35 -62 -2 -121 -6 -132 -8 -58 -14 -125 -43 -170 -72 -27 -18
-69 -42 -91 -53 -23 -12 -44 -28 -47 -37 -4 -8 -13 -15 -21 -15 -8 0 -19 -6
-23 -13 -4 -7 -29 -30 -55 -51 -27 -21 -48 -46 -48 -55 0 -9 -7 -25 -15 -35
-8 -11 -15 -28 -15 -38 0 -12 -5 -15 -16 -11 -9 3 -19 1 -23 -4 -15 -24 -82
-61 -101 -56 -30 8 -53 -16 -46 -49 3 -15 2 -28 -2 -28 -5 0 -9 -21 -11 -47
-1 -25 -8 -58 -15 -72 -15 -29 -10 -95 7 -84 7 4 8 0 4 -12 -9 -22 9 -45 36
-45 11 0 34 -4 51 -10 17 -5 42 -12 56 -14 28 -6 183 -154 205 -196 8 -15 26
-30 39 -34 14 -3 46 -26 72 -51 26 -26 55 -45 68 -45 12 0 41 -9 64 -20 22
-11 54 -20 70 -20 18 0 35 -8 43 -19 17 -23 72 -29 169 -17 66 8 161 31 192
47 10 5 24 9 32 9 7 0 21 10 29 23 9 12 30 38 48 57 17 19 38 45 46 58 9 13
25 22 41 22 19 0 42 18 89 68 34 37 63 70 63 74 0 23 100 149 146 186 30 24
54 48 54 53 0 5 12 15 28 21 29 13 82 65 82 81 0 5 14 25 30 44 l30 34 -20 39
c-11 22 -20 54 -20 73 0 40 -18 97 -31 97 -5 0 -9 7 -9 15 0 9 -17 24 -38 33
-20 9 -51 27 -69 40 -20 14 -46 22 -73 22 -60 0 -81 14 -74 49 5 25 2 32 -24
45 -19 10 -56 16 -93 16 -44 0 -72 6 -100 22 -22 12 -39 25 -39 29 0 5 -18 14
-40 20 -22 7 -40 16 -40 21 0 12 -31 9 -65 -6z m-110 -481 c0 -13 -8 -21 -24
-23 -28 -4 -46 11 -37 33 9 25 61 16 61 -10z"/>
<path d="M3321 7424 c0 -11 3 -14 6 -6 3 7 2 16 -1 19 -3 4 -6 -2 -5 -13z"/>
<path d="M2560 6920 c0 -5 -10 -9 -22 -7 -15 1 -23 -4 -26 -18 -4 -17 -3 -18
13 -5 16 14 17 13 10 -10 -18 -57 -23 -95 -14 -111 5 -10 9 -29 9 -43 0 -14 3
-26 8 -27 80 -7 164 -41 156 -63 -9 -23 30 -37 104 -38 70 -1 112 13 145 50
11 12 26 18 38 15 33 -9 45 12 44 74 0 32 3 60 7 64 4 3 2 20 -5 39 -9 26 -9
34 1 37 6 3 12 11 12 19 0 12 -4 12 -20 4 -14 -8 -26 -8 -40 0 -14 7 -20 7
-20 0 0 -7 -6 -6 -19 1 -11 7 -26 9 -37 4 -11 -4 -24 -7 -31 -6 -6 1 -23 -13
-37 -31 l-25 -32 -48 12 c-26 7 -57 23 -68 36 -11 13 -30 29 -42 35 -27 14
-93 15 -93 1z m260 -130 c0 -5 -4 -10 -10 -10 -5 0 -10 5 -10 10 0 6 5 10 10
10 6 0 10 -4 10 -10z"/>
<path d="M5824 6908 c-27 -10 -74 -24 -104 -29 -30 -6 -85 -24 -122 -40 -36
-16 -73 -29 -82 -29 -9 0 -16 -4 -16 -10 0 -5 -6 -10 -12 -10 -7 -1 -29 -13
-50 -28 -186 -139 -257 -205 -316 -299 -18 -28 -39 -54 -47 -57 -8 -3 -15 -12
-15 -20 0 -8 -6 -21 -12 -28 -31 -32 -67 -87 -87 -133 -12 -27 -34 -67 -48
-88 -17 -24 -26 -50 -25 -72 1 -19 -3 -37 -8 -40 -6 -3 -10 -21 -10 -39 0 -19
-7 -47 -15 -62 -19 -37 -19 -58 0 -74 13 -11 10 -17 -22 -48 l-37 -35 28 -24
28 -24 -23 -25 c-19 -20 -20 -24 -5 -24 9 0 19 6 22 13 6 16 77 10 71 -6 -2
-6 -16 -18 -32 -27 -28 -15 -47 -47 -38 -63 5 -8 69 1 94 14 25 13 40 -4 33
-39 -6 -29 -10 -32 -45 -32 -35 0 -38 -2 -30 -22 11 -30 28 -34 36 -9 3 12 14
21 24 21 15 0 18 -11 12 -62 -1 -4 -13 -19 -28 -33 l-28 -26 23 -19 c31 -26
28 -43 -15 -77 -41 -33 -38 -53 8 -53 46 0 35 -26 -21 -52 -47 -22 -50 -25
-49 -58 1 -19 -1 -49 -5 -67 -5 -23 -3 -41 10 -62 22 -37 11 -53 -44 -69 -21
-7 -52 -23 -68 -38 -16 -14 -39 -29 -51 -34 -28 -12 -30 -40 -3 -40 11 0 20 4
20 9 0 8 53 25 78 24 6 0 12 3 12 8 0 5 4 9 9 9 4 0 8 -17 7 -37 -1 -29 -5
-39 -21 -41 -44 -8 -83 -70 -55 -87 19 -12 11 -55 -12 -65 -21 -8 -20 -9 8 -9
29 -1 32 -4 36 -38 8 -64 -3 -88 -43 -91 -19 -2 -38 -9 -44 -15 -24 -29 -68
-47 -112 -48 -79 -1 -124 -10 -130 -26 -3 -8 -34 -44 -69 -80 -35 -36 -64 -69
-64 -74 0 -16 22 -10 54 14 17 13 42 27 56 30 14 3 40 19 59 34 18 15 43 31
55 34 13 3 20 12 18 22 -2 14 5 17 36 17 26 0 42 -5 46 -15 4 -12 0 -14 -22
-8 -24 6 -25 4 -14 -10 11 -13 10 -17 -8 -27 -14 -7 -19 -17 -16 -27 5 -12 1
-14 -14 -10 -11 3 -18 2 -15 -3 2 -4 -6 -19 -19 -33 -14 -15 -27 -36 -31 -47
-13 -41 -128 -142 -152 -133 -8 3 -13 -3 -13 -15 0 -11 -16 -46 -35 -78 -19
-32 -35 -65 -35 -73 0 -8 -28 -60 -62 -116 -35 -55 -68 -110 -74 -120 -17 -31
-39 -29 -81 7 -21 19 -51 42 -66 51 -15 10 -32 29 -37 42 -5 13 -26 35 -47 48
-70 45 -111 93 -115 134 -2 28 -9 41 -26 49 -41 20 -45 30 -26 59 32 49 149
87 169 54 5 -7 13 -4 25 8 9 11 40 34 69 52 28 18 51 38 51 43 0 7 -4 7 -12 1
-19 -15 -108 -43 -136 -43 -14 0 -33 -6 -41 -14 -34 -30 -90 -54 -132 -57 -64
-5 -134 17 -148 47 -6 13 -22 29 -36 36 -14 6 -25 20 -25 30 0 11 -5 28 -11
40 -8 14 -8 27 1 47 9 23 8 35 -6 64 -21 44 -72 68 -157 73 -32 2 -64 10 -72
18 -10 10 -27 12 -57 8 -33 -4 -51 -14 -80 -46 -21 -22 -38 -44 -38 -48 0 -4
-7 -8 -15 -8 -8 0 -15 -7 -15 -15 0 -9 -7 -18 -15 -21 -8 -4 -15 -15 -15 -25
0 -10 -5 -19 -10 -19 -7 0 -7 -6 0 -19 13 -25 13 -81 0 -81 -13 0 -13 -80 0
-100 6 -10 10 -11 10 -2 0 6 7 12 16 12 11 0 14 -6 9 -21 -4 -12 -2 -24 4 -28
6 -4 12 -56 14 -130 3 -100 7 -126 20 -136 24 -18 38 -61 27 -87 -5 -13 -9
-17 -9 -10 -1 7 -6 10 -12 7 -6 -5 -8 -22 -4 -47 6 -33 3 -44 -15 -63 -24 -26
-24 -62 1 -78 22 -14 68 18 86 60 11 28 16 32 32 24 10 -6 24 -31 31 -56 7
-25 19 -45 26 -45 8 0 14 -8 14 -19 0 -10 9 -21 20 -24 11 -3 20 -12 20 -21 0
-9 6 -16 14 -16 8 0 18 -10 22 -22 4 -13 17 -40 30 -60 18 -28 31 -37 55 -40
26 -2 34 -9 43 -35 6 -17 34 -56 61 -87 51 -58 74 -97 75 -129 0 -20 81 -107
99 -107 29 0 107 -67 103 -87 -1 -6 2 -14 8 -18 5 -3 10 3 10 14 0 32 16 25
37 -16 11 -22 34 -45 52 -54 19 -8 38 -23 43 -32 5 -10 24 -23 42 -31 27 -11
35 -21 40 -50 4 -21 15 -46 24 -57 9 -10 21 -36 27 -56 7 -26 22 -45 45 -59
19 -12 45 -32 58 -43 12 -12 27 -21 32 -21 6 0 10 -6 10 -14 0 -8 15 -30 33
-50 48 -53 56 -63 50 -69 -3 -3 0 -43 6 -89 9 -71 15 -86 37 -104 22 -18 25
-27 20 -50 -5 -22 -4 -25 4 -14 9 12 10 10 8 -10 -3 -21 2 -25 39 -31 48 -9
93 -35 93 -54 0 -7 18 -28 40 -45 46 -37 50 -58 15 -96 -28 -30 -28 -50 1 -47
10 1 23 -5 28 -12 6 -8 33 -20 61 -28 42 -12 51 -19 59 -46 7 -23 15 -31 32
-31 17 0 24 -6 24 -19 0 -21 36 -50 88 -71 24 -9 31 -17 27 -30 -4 -14 3 -21
30 -30 19 -6 35 -17 35 -24 0 -7 16 -25 35 -40 19 -15 44 -42 55 -60 24 -40
90 -73 116 -58 20 11 64 -11 64 -33 0 -8 11 -27 25 -43 14 -17 25 -37 25 -45
0 -30 38 -91 55 -87 3 0 13 -6 21 -15 9 -8 26 -15 40 -15 13 0 24 -4 24 -8 0
-5 17 -14 38 -20 21 -7 49 -23 62 -37 13 -14 29 -25 35 -25 7 0 25 -10 40 -22
22 -17 31 -19 45 -10 22 14 40 -2 40 -36 0 -20 4 -23 33 -21 42 3 77 -9 77
-27 0 -8 10 -18 23 -23 40 -16 133 -41 150 -41 10 0 17 -4 17 -10 0 -5 6 -10
13 -10 6 0 23 -9 36 -19 24 -18 25 -18 58 1 27 16 42 19 81 13 26 -4 80 -7
119 -6 83 3 103 -4 76 -25 -17 -12 -17 -13 0 -14 9 0 17 -4 17 -10 0 -11 42
-13 89 -4 24 5 30 11 26 24 -7 21 18 30 83 30 23 0 42 5 42 10 0 6 -19 10 -42
10 -87 0 -10 14 106 19 12 1 16 6 12 16 -3 8 -2 14 2 13 25 -6 94 16 103 34 7
13 17 18 30 15 24 -6 80 15 99 37 7 9 25 16 41 16 15 0 31 5 34 10 4 6 10 8
14 6 4 -3 35 24 69 59 42 45 69 65 85 65 29 0 44 15 49 49 2 16 20 36 53 58
66 44 65 43 100 99 17 26 37 59 46 73 9 15 19 38 22 53 9 33 54 88 73 88 8 0
14 10 14 25 0 14 10 36 23 48 12 12 29 35 37 51 8 16 23 31 33 34 12 3 17 14
17 39 0 19 4 32 8 29 5 -3 9 8 9 25 0 16 7 35 17 42 10 7 16 17 14 23 -5 16
84 111 89 97 9 -26 23 -12 23 21 0 45 9 66 25 60 7 -3 19 2 28 10 12 12 13 24
5 61 -8 35 -7 51 4 68 8 12 20 41 27 65 12 41 13 42 51 40 22 -2 40 -8 40 -14
0 -7 13 -11 33 -9 17 2 52 4 77 5 43 2 44 3 18 13 -16 6 -28 14 -28 19 0 4 -4
8 -10 8 -5 0 -10 -6 -10 -14 0 -21 -97 -9 -101 13 -7 37 -6 61 2 61 5 0 14 12
20 27 7 20 12 24 18 14 7 -11 10 -11 17 0 4 8 3 14 -5 17 -21 7 8 31 45 38 24
4 34 12 34 25 0 11 -3 19 -8 19 -13 0 -35 74 -33 114 1 50 26 89 50 81 32 -10
71 12 71 40 0 14 -7 28 -15 31 -22 9 -18 31 12 64 32 36 57 103 50 136 -3 18
1 24 17 26 12 2 28 17 38 38 20 42 39 62 75 81 31 16 53 34 53 44 0 4 11 20
25 37 17 20 25 42 25 68 0 45 18 60 72 60 71 0 96 19 61 46 -17 12 -17 13 4
14 32 0 96 68 89 96 -4 14 -1 24 9 28 11 4 15 21 15 61 0 30 4 55 8 55 10 0
45 71 38 78 -9 8 14 42 29 42 8 0 15 6 15 14 0 16 32 30 65 31 16 0 21 8 23
38 3 35 1 37 -25 37 l-28 1 29 26 c26 22 36 25 81 20 50 -5 85 5 85 24 0 19
-52 79 -69 79 -12 0 -13 2 -3 9 11 6 9 15 -7 44 l-20 36 27 3 c26 3 27 6 30
65 3 57 1 63 -23 79 -14 9 -24 24 -24 33 1 14 2 13 6 -1 9 -36 24 -17 22 27
-4 57 20 84 79 92 50 7 56 20 38 88 -12 44 -17 50 -39 50 -15 1 -29 4 -33 7
-11 11 74 58 106 58 39 0 40 26 3 42 -16 7 -38 23 -50 35 -12 13 -29 23 -38
23 -26 0 -65 31 -65 52 0 12 -10 29 -22 40 -17 15 -19 21 -9 27 9 6 10 11 2
15 -22 14 -10 34 32 50 23 9 53 16 65 16 32 0 20 14 -33 40 -36 17 -64 22
-142 23 -54 0 -107 -4 -117 -10 -16 -9 -15 -12 14 -36 17 -15 38 -31 48 -36
13 -7 14 -12 3 -25 -7 -8 -10 -20 -7 -25 6 -10 -7 -14 -117 -42 -26 -6 -50
-16 -54 -22 -6 -9 24 -40 46 -49 5 -2 6 -17 4 -34 -3 -22 -14 -35 -39 -49 -34
-18 -44 -40 -22 -47 13 -5 -36 -117 -73 -170 -22 -31 -66 -38 -75 -13 -4 8
-10 15 -16 15 -5 0 -26 13 -46 29 -20 16 -52 35 -69 42 -18 8 -33 17 -33 21 0
5 -5 8 -12 8 -7 0 5 -15 25 -34 29 -26 37 -41 37 -68 0 -43 25 -68 68 -68 39
0 72 -33 72 -72 0 -16 -9 -47 -20 -68 -18 -35 -25 -40 -55 -40 -19 0 -34 3
-34 8 4 22 -3 40 -24 62 -13 14 -22 30 -20 36 2 5 -15 31 -38 57 -34 38 -48
47 -74 47 -23 0 -39 8 -56 28 -13 16 -37 37 -54 48 -16 10 -37 27 -47 36 -16
16 -16 18 -1 27 15 8 15 10 1 25 -9 9 -21 16 -26 16 -6 0 -9 8 -8 18 3 19 47
28 74 16 10 -4 24 -9 32 -10 8 -2 28 -6 44 -10 26 -6 27 -5 17 14 -6 11 -22
29 -36 40 -35 28 -33 52 5 52 32 0 36 9 20 41 -9 15 -22 19 -70 19 -33 0 -80
5 -105 12 -42 11 -46 11 -61 -10 -8 -12 -26 -22 -38 -22 -13 0 -26 -7 -30 -15
-8 -22 -21 -19 -68 15 -34 25 -46 42 -60 88 -10 31 -17 75 -15 97 2 32 -2 40
-18 43 -30 6 -46 23 -66 69 -11 27 -25 43 -35 43 -16 0 -16 1 -1 18 22 24 21
34 -4 66 -23 29 -19 67 5 47 15 -13 146 -12 146 1 0 7 -16 11 -23 6 -2 -2 -12
4 -22 12 -10 8 -36 20 -59 25 -51 12 -60 43 -21 73 l26 20 -25 26 c-59 58 -94
78 -141 78 -52 0 -61 19 -18 40 37 18 38 31 0 48 -17 8 -36 25 -42 38 -5 12
-15 22 -20 22 -20 0 -51 29 -39 37 32 23 36 75 12 150 -19 61 -19 61 1 104 12
24 21 49 21 56 0 7 5 13 11 13 6 0 9 6 6 14 -3 7 1 23 10 35 11 17 13 28 5 49
-6 15 -13 44 -17 64 -3 20 -12 50 -20 65 -8 15 -15 42 -15 58 -1 18 -12 44
-30 65 -17 19 -30 46 -30 60 0 14 -16 49 -35 77 -19 29 -35 57 -35 63 0 5 -4
10 -10 10 -5 0 -12 10 -15 23 -4 12 -32 47 -63 76 -31 29 -73 68 -92 87 -19
18 -51 40 -70 49 -19 9 -53 27 -75 40 -22 13 -51 24 -65 24 -14 1 -35 8 -47
16 -12 8 -32 13 -45 11 -13 -3 -31 -5 -40 -5 -10 -1 -18 -7 -18 -13 0 -15 -77
-54 -86 -45 -4 3 8 18 25 32 49 42 40 61 -14 30 -30 -16 -61 -25 -91 -25 -24
0 -55 -6 -67 -14 -26 -16 -87 -29 -87 -18 1 19 21 33 75 50 46 15 61 24 63 41
3 16 -2 21 -20 21 -13 0 -29 -5 -36 -12 -9 -9 -16 -8 -30 5 -10 9 -25 17 -33
17 -10 -1 -9 -3 4 -11 20 -12 22 -32 3 -48 -21 -18 -107 -26 -116 -11 -6 10
-15 10 -43 -1 -30 -11 -39 -10 -61 4 -45 30 -126 13 -126 -25 0 -28 -30 -35
-49 -11 -19 24 -48 37 -78 34 -33 -3 -28 14 7 29 25 10 34 10 55 -4 14 -9 25
-21 25 -26 0 -23 16 -7 33 30 19 44 28 48 52 24 18 -18 45 -12 45 11 0 17 65
22 75 5 3 -5 13 -10 22 -10 14 0 14 2 1 23 -17 25 -81 39 -111 24 -36 -17 -70
-18 -121 -3 -84 24 -185 26 -242 4z m-114 -148 c0 -5 -5 -10 -11 -10 -5 0 -7
5 -4 10 3 6 8 10 11 10 2 0 4 -4 4 -10z m127 -36 c-3 -3 -12 -4 -19 -1 -8 3
-5 6 6 6 11 1 17 -2 13 -5z m-957 -1864 c0 -5 -4 -10 -10 -10 -5 0 -10 5 -10
10 0 6 5 10 10 10 6 0 10 -4 10 -10z m3101 -381 c44 -15 69 -37 69 -61 0 -22
-51 -25 -70 -4 -6 8 -21 16 -33 18 -13 2 -23 13 -28 31 -8 31 5 35 62 16z
m-3296 -186 c-5 -15 -7 -34 -6 -40 1 -7 -3 -13 -9 -13 -5 0 -10 7 -10 15 0 8
-4 15 -10 15 -19 0 -10 37 13 47 28 13 31 10 22 -24z m3596 -78 c21 -14 44
-25 52 -25 31 0 57 -31 57 -69 0 -42 -14 -61 -45 -61 -27 0 -50 -25 -59 -64
-6 -22 -11 -27 -28 -23 -11 3 -31 -1 -45 -10 -19 -13 -29 -14 -48 -5 -29 13
-33 56 -13 122 10 31 18 40 35 40 50 0 71 23 29 34 -19 5 -25 14 -28 46 -2 23
-1 43 1 46 9 9 51 -6 92 -31z m-114 -37 c-2 -13 -4 -3 -4 22 0 25 2 35 4 23 2
-13 2 -33 0 -45z m-3577 22 c0 -21 -31 -71 -40 -65 -14 9 -12 43 3 60 14 17
37 19 37 5z m-70 -85 c0 -8 -4 -15 -10 -15 -5 0 -10 -25 -10 -56 0 -55 -9 -74
-42 -87 -10 -3 -18 -13 -18 -22 0 -8 -9 -15 -20 -15 -27 0 -25 -16 5 -52 26
-31 36 -108 14 -108 -10 0 -9 -26 4 -93 3 -15 -72 -16 -133 -1 -42 10 -46 14
-55 53 -6 23 -13 40 -16 37 -3 -3 -4 8 -1 24 4 31 52 86 83 95 10 3 20 20 23
40 6 28 11 35 31 35 17 0 22 4 18 18 -2 10 3 24 11 31 9 8 16 18 16 24 0 6 18
28 40 48 22 21 40 42 40 48 0 6 5 11 10 11 6 0 10 -7 10 -15z m3040 -1418 c0
-23 -7 -60 -14 -82 -8 -22 -12 -50 -10 -61 3 -12 1 -25 -5 -28 -6 -4 -11 -16
-11 -26 0 -10 -4 -21 -9 -24 -9 -6 -5 105 5 137 3 10 6 42 6 70 -1 48 11 72
30 61 4 -3 8 -24 8 -47z m-2480 -36 c-9 -17 -8 -21 5 -21 11 0 15 -11 15 -45
0 -25 5 -45 10 -45 6 0 10 -9 10 -20 0 -18 -29 -30 -31 -12 -1 4 -3 20 -5 35
-1 16 -8 44 -14 62 -8 25 -8 40 0 55 6 12 14 19 17 17 2 -3 0 -15 -7 -26z
m2871 -384 c-10 -9 -11 -8 -5 6 3 10 9 15 12 12 3 -3 0 -11 -7 -18z m-2532
-223 c13 -15 24 -41 25 -58 1 -26 -3 -31 -24 -34 -51 -6 -93 71 -58 106 18 18
32 15 57 -14z m41 -113 c11 -22 -9 -51 -36 -51 -18 0 -18 15 2 45 20 30 21 30
34 6z m360 -128 c-1 -5 -14 -23 -30 -42 -19 -23 -34 -32 -45 -27 -19 7 -16 36
5 46 8 4 24 12 35 18 24 13 35 15 35 5z m113 -65 c2 -7 0 -21 -5 -30 -5 -12
-5 -18 2 -18 15 0 12 -26 -4 -39 -21 -17 -51 1 -64 39 -10 27 -9 31 16 45 34
18 49 19 55 3z"/>
<path d="M6355 6879 c-4 -6 -5 -13 -2 -16 7 -7 27 6 27 18 0 12 -17 12 -25 -2z"/>
<path d="M3040 6690 c0 -5 5 -10 11 -10 5 0 7 5 4 10 -3 6 -8 10 -11 10 -2 0
-4 -4 -4 -10z"/>
<path d="M1200 6430 c0 -14 -4 -20 -8 -15 -4 6 -13 11 -21 10 -20 0 -26 -25
-7 -25 18 0 16 -42 -2 -48 -23 -7 -12 -33 31 -73 54 -52 96 -71 139 -62 48 9
58 20 58 69 0 42 -1 44 -51 69 -28 14 -62 34 -76 45 -14 11 -29 17 -34 14 -5
-3 -13 5 -18 18 l-10 23 -1 -25z"/>
<path d="M1583 5633 c-16 -3 -23 -11 -23 -29 0 -31 -24 -31 -38 1 -9 18 -19
25 -41 25 -16 0 -33 -5 -36 -10 -4 -6 -15 -8 -24 -5 -14 4 -22 -5 -35 -40 -10
-25 -22 -45 -27 -45 -14 0 -38 -54 -37 -86 0 -31 -79 -204 -93 -204 -5 0 -9
-9 -9 -20 0 -11 -4 -20 -10 -20 -5 0 -10 -5 -10 -10 0 -6 -10 -27 -23 -48 -13
-20 -31 -56 -41 -80 -18 -40 -18 -43 -2 -61 9 -10 16 -24 14 -31 -2 -6 22 -26
52 -43 l55 -32 165 0 c91 0 186 -4 211 -9 35 -6 49 -5 55 5 4 7 7 62 6 122 -3
138 9 187 43 187 16 0 25 6 25 15 0 8 -4 15 -9 15 -5 0 -13 10 -17 23 -4 12
-12 25 -18 29 -7 5 -10 35 -8 80 2 82 -14 175 -32 175 -15 0 -76 44 -76 55 0
4 7 8 16 8 9 0 14 7 12 17 -3 19 -13 22 -45 16z"/>
<path d="M4800 5559 c0 -5 5 -7 10 -4 6 3 10 8 10 11 0 2 -4 4 -10 4 -5 0 -10
-5 -10 -11z"/>
<path d="M4768 5553 c7 -3 16 -2 19 1 4 3 -2 6 -13 5 -11 0 -14 -3 -6 -6z"/>
<path d="M8447 4793 c-13 -12 -7 -23 13 -23 11 0 20 7 20 15 0 15 -21 21 -33
8z"/>
<path d="M3160 4620 l-45 -18 86 -4 c59 -2 85 0 82 8 -2 6 6 16 19 22 42 20
-91 13 -142 -8z"/>
<path d="M4239 4401 c-26 -9 -122 -77 -127 -92 -6 -15 14 -10 78 20 106 51
140 99 49 72z"/>
<path d="M4420 4248 c0 -7 -3 -24 -7 -37 -4 -17 -3 -22 5 -17 7 4 12 16 12 27
0 10 5 19 11 19 5 0 7 5 4 10 -9 14 -25 12 -25 -2z"/>
<path d="M4267 4215 c-9 -8 -20 -15 -24 -15 -13 0 -73 -64 -73 -78 0 -21 19
-13 37 16 10 15 24 32 33 39 8 6 24 18 35 26 11 9 17 18 14 22 -4 3 -14 -1
-22 -10z"/>
<path d="M4130 4085 c0 -8 7 -15 15 -15 8 0 15 7 15 15 0 8 -7 15 -15 15 -8 0
-15 -7 -15 -15z"/>
<path d="M9365 2243 c-16 -2 -44 -11 -61 -18 -18 -8 -42 -16 -55 -17 -13 -2
-29 -9 -35 -17 -8 -11 -10 -6 -8 20 l3 34 -11 -34 c-10 -29 -9 -35 6 -46 13
-10 14 -14 4 -18 -10 -3 -10 -9 -2 -23 13 -22 4 -33 -68 -84 -27 -18 -48 -39
-48 -46 0 -15 -54 -74 -69 -74 -6 0 -11 -9 -11 -19 0 -11 -9 -26 -20 -34 -11
-8 -17 -17 -13 -20 3 -4 1 -7 -5 -7 -7 0 -12 5 -12 10 0 16 -15 12 -36 -11
-55 -58 -80 -79 -99 -79 -11 0 -32 -16 -48 -35 -17 -21 -33 -32 -42 -29 -8 4
-15 1 -15 -5 0 -6 -8 -11 -18 -11 -10 0 -23 -5 -30 -12 -9 -9 -15 -8 -25 6
-17 23 -43 11 -50 -23 -3 -16 -13 -36 -22 -44 -8 -9 -15 -18 -15 -22 0 -11
-58 -65 -69 -65 -6 0 -11 -4 -11 -10 0 -5 -9 -10 -21 -10 -42 0 -59 -18 -59
-65 0 -24 -4 -47 -10 -50 -5 -3 -10 -15 -10 -26 0 -10 -5 -29 -12 -42 -6 -12
-14 -29 -18 -37 -4 -8 -21 -18 -38 -22 -17 -5 -40 -21 -51 -36 -38 -50 -55
-63 -78 -59 -13 2 -23 1 -23 -2 0 -3 -12 -7 -27 -8 -67 -4 -132 -16 -128 -24
3 -4 -3 -16 -13 -26 -11 -10 -25 -28 -31 -40 -13 -26 -47 -32 -37 -7 15 39 18
64 7 64 -6 0 -11 6 -11 14 0 9 -17 16 -47 20 -27 3 -63 8 -80 12 -26 5 -33 3
-33 -10 0 -9 7 -16 15 -16 8 0 15 -4 15 -10 0 -5 11 -10 25 -10 14 0 25 -4 25
-9 0 -5 9 -13 20 -16 11 -4 28 -17 36 -30 15 -23 14 -28 -11 -80 -27 -53 -40
-66 -47 -45 -2 7 -17 5 -41 -5 -36 -15 -37 -15 -37 5 0 13 -7 20 -20 20 -14 0
-23 -11 -31 -41 l-13 -41 -51 4 c-46 3 -51 1 -47 -15 2 -10 -2 -23 -11 -30 -9
-7 -21 -31 -27 -55 -6 -24 -18 -46 -26 -49 -7 -3 -14 -14 -14 -25 0 -17 -3
-17 -37 9 -21 15 -41 31 -44 35 -3 5 -40 5 -82 2 -55 -5 -77 -11 -77 -20 0
-10 -15 -14 -52 -14 -28 0 -49 -3 -46 -6 4 -3 0 -21 -8 -40 l-14 -34 35 0 c34
0 35 -1 35 -40 0 -29 4 -40 15 -40 12 0 15 -16 15 -80 l0 -80 -30 0 c-32 0
-37 11 -21 53 6 15 5 39 -2 65 l-11 42 -77 0 c-43 0 -79 4 -81 9 -4 14 -78
-11 -78 -26 0 -7 4 -13 9 -13 5 0 23 -12 40 -26 25 -21 31 -33 31 -65 0 -21
-4 -39 -10 -39 -5 0 -10 -18 -10 -40 0 -22 5 -40 10 -40 6 0 10 -10 10 -22 0
-13 7 -32 15 -42 20 -27 20 -96 0 -96 -8 0 -15 -6 -15 -14 0 -11 -8 -12 -40
-4 -47 12 -115 -1 -115 -22 0 -21 68 -34 115 -22 l40 10 0 -54 c0 -48 2 -54
21 -54 19 0 21 5 17 40 -3 36 -1 40 19 40 20 0 23 -5 23 -40 l0 -40 880 0 880
0 0 40 c0 28 4 40 14 40 22 0 67 45 56 56 -15 15 -15 70 -1 88 10 12 31 16 82
16 l69 0 0 40 c0 29 -4 40 -15 40 -8 0 -15 5 -15 10 0 6 5 10 10 10 6 0 10 20
10 45 0 32 5 47 15 52 12 4 15 16 12 46 -5 50 1 77 19 77 7 0 24 11 38 25 14
14 32 25 41 25 8 0 15 5 15 10 0 6 11 23 25 38 14 15 25 35 25 44 0 10 4 18 8
18 10 0 32 90 32 131 0 16 5 29 11 29 8 0 10 18 6 60 -4 37 -3 60 3 60 6 0 10
9 10 20 0 11 -7 20 -15 20 -20 0 -20 54 0 110 8 23 13 46 10 50 -8 13 16 160
26 160 5 0 9 17 9 38 0 21 11 60 25 87 13 27 22 52 19 57 -3 5 -6 71 -6 148 0
107 4 147 16 171 9 18 16 37 16 43 0 6 11 38 25 71 20 48 25 78 25 147 0 84
-1 88 -27 105 -19 13 -28 14 -30 6 -4 -10 -10 -10 -26 0 -12 7 -35 11 -52 10z
m-725 -573 c0 -5 -2 -10 -4 -10 -3 0 -8 5 -11 10 -3 6 -1 10 4 10 6 0 11 -4
11 -10z m-911 -1299 c34 -31 40 -51 16 -51 -8 0 -15 -4 -15 -10 0 -19 -61 -42
-95 -36 -56 11 -55 70 2 81 23 4 37 13 40 26 7 26 15 24 52 -10z m-329 -41 c0
-6 -9 -10 -20 -10 -13 0 -20 7 -20 20 0 18 3 19 20 10 11 -6 20 -15 20 -20z
m1500 -216 c0 -16 -26 -19 -35 -4 -3 6 -4 14 0 20 8 13 35 1 35 -16z"/>
<path d="M2336 2131 c-16 -16 -27 -32 -26 -36 1 -4 -2 -10 -6 -13 -4 -4 -3 0
1 8 8 13 7 13 -8 1 -11 -8 -17 -28 -17 -52 0 -22 -5 -39 -11 -39 -13 0 -4 -72
16 -130 13 -38 10 -110 -5 -110 -3 0 -12 -22 -18 -48 -13 -57 4 -153 28 -159
13 -4 13 -3 0 6 -11 8 -11 11 -2 11 7 0 18 -13 23 -30 6 -16 15 -28 19 -25 12
7 33 -62 27 -87 -7 -27 13 -70 30 -64 7 3 13 1 13 -5 0 -6 4 -8 9 -5 8 6 13
-22 31 -184 10 -96 18 -130 31 -130 5 0 9 -9 9 -20 0 -11 4 -20 9 -20 5 0 12
-16 15 -35 5 -24 15 -40 30 -46 24 -11 35 -38 57 -137 6 -30 18 -56 28 -62 9
-5 26 -25 36 -44 11 -20 25 -36 31 -36 7 0 17 -23 23 -52 7 -30 20 -57 31 -65
14 -10 19 -25 18 -63 0 -49 14 -76 92 -173 3 -4 47 2 96 14 73 17 91 25 100
44 9 18 9 28 -2 43 -17 25 -1 92 22 92 14 0 15 12 9 88 -10 124 -21 162 -62
200 -20 17 -41 32 -48 32 -7 0 -15 18 -19 40 -4 25 -12 40 -20 40 -15 0 -25
42 -31 126 -5 88 -17 136 -31 130 -14 -5 -64 48 -64 68 0 7 -11 23 -25 36 -20
19 -25 33 -25 72 0 36 -4 48 -15 48 -8 0 -15 7 -15 15 0 8 9 15 19 15 10 0 33
13 50 29 24 22 31 38 31 65 0 29 4 36 20 36 17 0 20 7 20 40 0 22 -4 40 -10
40 -5 0 -10 8 -10 18 0 14 -2 15 -10 2 -7 -11 -10 -11 -10 -2 0 7 -4 10 -10 7
-5 -3 -10 -22 -10 -41 0 -22 -4 -33 -10 -29 -6 4 -8 15 -5 26 6 17 1 19 -34
19 -52 0 -70 26 -77 107 -7 77 -24 133 -41 133 -8 0 -12 4 -8 9 3 5 0 13 -5
16 -6 4 -15 18 -20 31 -7 16 -17 24 -34 24 -23 0 -24 4 -31 80 -4 44 -11 80
-15 80 -5 0 -12 9 -15 20 -3 11 -12 20 -19 20 -7 0 -21 8 -32 18 -32 30 -86
26 -118 -7z m464 -643 c-1 -28 -2 -30 -11 -15 -6 10 -8 25 -5 33 9 24 16 16
16 -18z"/>
<path d="M7840 1989 c0 -5 5 -7 10 -4 6 3 10 8 10 11 0 2 -4 4 -10 4 -5 0 -10
-5 -10 -11z"/>
<path d="M2884 1509 c-3 -6 -1 -16 5 -22 8 -8 11 -5 11 11 0 24 -5 28 -16 11z"/>
<path d="M5520 745 c0 -10 -10 -29 -22 -42 -19 -21 -20 -24 -6 -40 8 -10 13
-24 11 -31 -8 -22 18 -63 36 -58 9 3 35 7 58 10 24 3 51 9 60 15 16 9 14 11
-14 21 l-32 12 24 24 c28 28 32 65 11 83 -8 7 -40 15 -70 18 -50 5 -56 4 -56
-12z"/>
<path d="M6614 689 c-10 -11 -19 -35 -20 -53 -1 -30 -32 -76 -52 -76 -23 0
-56 -144 -36 -158 15 -11 37 -74 41 -119 4 -37 2 -43 -13 -43 -19 0 -54 -49
-54 -74 0 -8 -18 -26 -40 -41 -22 -15 -40 -32 -40 -36 0 -5 -36 -9 -80 -9
l-80 0 0 -40 0 -40 280 0 280 0 0 50 c0 37 -5 57 -20 72 -25 27 -25 48 -2 74
9 11 22 29 28 40 6 10 25 28 42 39 17 11 31 26 32 33 0 6 9 12 20 12 18 0 20
7 20 80 0 47 4 80 10 80 6 0 10 18 10 40 0 29 -4 40 -15 40 -18 0 -18 8 0 40
8 14 14 29 15 34 0 5 -47 7 -107 4 -60 -2 -91 -3 -70 -1 20 2 37 8 37 14 0 5
7 9 15 9 16 0 20 15 7 24 -5 3 -46 8 -92 11 -46 3 -87 8 -90 10 -4 3 -16 -5
-26 -16z"/>
<path d="M6000 678 c0 -6 -6 -19 -14 -27 -19 -22 -30 -91 -15 -91 16 0 7 -87
-13 -128 -11 -21 -12 -31 -5 -29 7 1 13 -14 15 -37 3 -37 4 -38 18 -17 8 11
22 21 30 21 8 0 14 9 14 21 0 11 4 18 9 15 5 -4 12 12 16 34 4 22 11 40 16 40
5 0 9 9 9 21 0 11 5 29 10 40 8 15 7 19 -5 19 -11 0 -15 10 -15 35 0 48 -25
95 -50 95 -11 0 -20 -5 -20 -12z"/>
<path d="M7007 673 c-4 -3 -7 -14 -7 -24 0 -19 30 -35 39 -20 3 5 17 11 30 12
24 4 24 5 7 22 -17 17 -57 23 -69 10z"/>
<path d="M5920 365 c-3 -5 -22 -19 -42 -29 -21 -11 -38 -25 -38 -31 0 -7 -10
-15 -21 -18 -19 -5 -21 -10 -14 -39 5 -18 11 -62 14 -98 l6 -65 48 -3 47 -3 0
-40 c0 -32 3 -39 20 -39 16 0 20 7 20 34 0 19 4 45 9 58 15 39 25 228 12 228
-7 0 -11 -20 -11 -49 0 -46 -13 -72 -28 -57 -3 4 -9 41 -12 84 -3 42 -7 73
-10 67z"/>
<path d="M5983 40 c0 -25 2 -35 4 -22 2 12 2 32 0 45 -2 12 -4 2 -4 -23z"/>
<path d="M5810 10 c0 -5 7 -10 15 -10 8 0 15 5 15 10 0 6 -7 10 -15 10 -8 0
-15 -4 -15 -10z"/>
</g>
</svg>
